<?xml version="1.0" standalone="no"?>
<!DOCTYPE svg PUBLIC "-//W3C//DTD SVG 20010904//EN"
 "http://www.w3.org/TR/2001/REC-SVG-20010904/DTD/svg10.dtd">
<svg version="1.0" xmlns="http://www.w3.org/2000/svg"
 width="1963.000000pt" height="1963.000000pt" viewBox="0 0 1963.000000 1963.000000"
 preserveAspectRatio="xMidYMid meet">
<metadata>
Created by potrace 1.11, written by Peter Selinger 2001-2013
</metadata>
<g transform="translate(0.000000,1963.000000) scale(0.100000,-0.100000)"
fill="#000000" stroke="none">
<path d="M7241 19554 c-46 -58 -40 -153 17 -281 64 -143 149 -436 175 -608 9
-55 35 -167 57 -250 63 -225 78 -308 95 -492 8 -92 21 -193 27 -223 19 -88 16
-346 -7 -490 -17 -106 -19 -168 -17 -410 1 -215 -2 -305 -13 -365 -8 -44 -14
-123 -14 -175 1 -193 -27 -446 -59 -541 -11 -30 -25 -77 -31 -106 -32 -134
-113 -191 -306 -217 -144 -19 -537 -31 -563 -17 -62 33 -316 397 -427 611 -83
160 -127 210 -183 210 -28 0 -45 -7 -63 -26 -22 -23 -24 -33 -23 -112 2 -106
35 -221 154 -528 44 -114 77 -211 73 -215 -17 -17 -374 -100 -468 -110 -55 -5
-133 -17 -174 -26 -132 -28 -253 0 -376 88 -143 103 -431 603 -594 1034 -177
469 -241 719 -241 944 0 49 -4 65 -26 90 -27 32 -60 39 -94 21 -11 -6 -29 -39
-42 -78 -20 -61 -22 -91 -26 -327 -10 -685 42 -955 278 -1450 77 -162 138
-317 190 -486 42 -136 47 -183 29 -240 -14 -42 -162 -268 -231 -351 -104 -127
-270 -297 -350 -359 -45 -35 -144 -116 -220 -179 -267 -220 -325 -266 -459
-357 -74 -50 -197 -136 -274 -190 -595 -420 -1214 -820 -1375 -888 -224 -96
-676 -331 -722 -376 -35 -34 -35 -59 -1 -100 57 -68 140 -76 290 -28 155 50
321 116 413 166 182 99 750 377 835 410 50 19 164 75 255 125 91 51 224 124
295 163 72 39 236 142 365 229 491 328 544 364 688 458 81 53 221 156 312 228
91 72 208 161 260 198 52 37 148 118 215 180 270 255 495 395 722 451 152 38
309 63 480 76 95 7 177 17 184 20 6 4 69 9 139 10 147 3 146 3 193 -90 59
-118 407 -616 518 -742 112 -126 226 -218 379 -304 52 -29 98 -58 102 -64 11
-14 2 -52 -43 -190 -80 -241 -252 -517 -501 -802 -57 -65 -131 -153 -166 -195
-34 -42 -112 -123 -173 -180 -61 -57 -211 -202 -333 -324 -139 -139 -258 -248
-321 -294 -55 -41 -134 -103 -175 -139 -106 -92 -257 -202 -384 -279 -162 -99
-217 -164 -185 -221 8 -14 24 -27 36 -29 27 -4 291 86 370 126 34 18 113 54
175 81 114 48 169 79 434 245 174 109 294 198 460 341 70 61 196 169 280 240
281 240 361 315 471 443 130 151 366 444 448 557 32 44 84 107 115 140 32 33
81 92 111 130 29 39 62 78 74 88 41 36 144 78 241 96 194 38 460 110 549 149
50 22 136 57 193 77 l103 39 52 -26 c84 -41 214 -145 282 -225 35 -41 146
-190 247 -331 269 -377 402 -536 548 -652 110 -87 365 -233 483 -275 199 -71
499 -218 597 -291 57 -44 155 -155 208 -239 44 -69 139 -269 160 -336 25 -80
37 -165 24 -173 -5 -3 -32 15 -61 39 -55 47 -129 74 -504 185 -151 44 -190 64
-287 149 -36 32 -106 89 -156 128 -89 70 -204 189 -278 288 -44 59 -236 241
-287 273 -47 29 -58 28 -107 -7 -45 -33 -69 -87 -104 -231 -19 -77 -20 -104
-14 -290 9 -259 20 -368 51 -494 14 -56 25 -104 25 -108 0 -4 -10 -16 -22 -27
l-21 -21 35 -14 c30 -13 38 -25 60 -83 48 -127 154 -349 202 -422 26 -40 70
-98 98 -128 39 -41 49 -56 40 -65 -23 -23 -11 -46 59 -111 39 -36 68 -70 65
-76 -10 -15 -167 -62 -261 -77 -44 -7 -111 -19 -150 -28 -38 -9 -101 -16 -140
-16 -89 0 -113 -7 -121 -33 -7 -21 9 -39 82 -94 28 -21 28 -23 11 -37 -10 -8
-94 -32 -185 -54 -400 -96 -885 -88 -1234 21 -56 17 -70 18 -83 7 -32 -27 -14
-61 50 -97 33 -18 77 -38 98 -43 53 -15 47 -36 -20 -68 -53 -24 -69 -27 -178
-27 -141 0 -422 39 -475 65 -63 32 -173 62 -273 74 -90 12 -101 11 -120 -4
-19 -16 -20 -21 -9 -44 7 -16 28 -34 50 -42 42 -18 82 -52 82 -70 0 -18 -120
-29 -184 -16 -29 6 -140 45 -247 88 -107 42 -230 89 -274 104 -97 33 -253 99
-355 150 -41 20 -125 58 -187 84 -233 98 -549 271 -836 458 -92 60 -202 124
-245 141 -42 17 -106 48 -142 68 -36 20 -157 82 -269 138 -157 78 -242 113
-365 152 -89 27 -208 65 -266 84 -102 34 -414 115 -495 130 -21 3 -57 16 -78
26 -32 17 -124 39 -270 66 -48 9 -76 -37 -42 -71 8 -8 15 -18 15 -21 0 -10
-105 4 -165 21 -27 8 -134 20 -237 26 -203 12 -388 2 -531 -27 -61 -13 -84
-14 -112 -5 -29 9 -41 9 -67 -5 -38 -19 -165 -31 -423 -40 -358 -12 -820 -100
-1094 -210 -75 -29 -174 -68 -221 -85 -47 -17 -143 -60 -215 -95 -71 -35 -187
-90 -256 -123 -95 -45 -142 -74 -188 -116 -52 -48 -66 -56 -100 -56 -44 0 -51
-10 -51 -75 0 -49 13 -59 61 -45 22 7 39 5 58 -4 14 -7 58 -23 97 -34 39 -12
90 -37 115 -55 67 -51 133 -82 254 -116 173 -50 333 -140 444 -250 60 -58 60
-55 -8 -93 -33 -18 -42 -56 -18 -76 7 -6 60 -28 118 -48 174 -60 266 -107 290
-149 12 -20 32 -40 45 -45 12 -5 28 -21 36 -36 7 -15 20 -31 28 -35 50 -26
225 -100 281 -118 83 -27 130 -57 244 -156 50 -42 140 -115 202 -161 107 -81
163 -134 163 -155 0 -6 -9 -8 -19 -4 -11 3 -26 -1 -35 -10 -34 -34 -18 -56
106 -151 57 -43 122 -98 145 -122 43 -44 124 -177 167 -275 77 -173 133 -589
139 -1022 l2 -200 -32 -65 c-20 -40 -36 -94 -43 -140 -16 -114 -37 -176 -92
-279 -55 -102 -93 -204 -104 -278 -4 -27 -13 -66 -21 -88 -11 -30 -11 -45 -2
-67 22 -52 78 -42 93 18 8 30 28 32 22 2 -13 -66 -28 -253 -22 -285 4 -21 11
-121 16 -223 11 -225 43 -409 106 -620 83 -275 375 -684 672 -940 64 -56 200
-157 302 -225 306 -203 643 -476 787 -638 49 -54 83 -62 101 -22 6 14 17 25
24 25 21 -1 169 -127 202 -173 17 -23 54 -69 83 -102 105 -117 212 -292 264
-431 12 -31 34 -71 50 -89 40 -45 59 -95 59 -152 0 -26 7 -80 15 -118 19 -91
19 -170 -2 -326 -14 -107 -14 -131 -3 -144 24 -29 62 -14 88 32 13 24 30 43
39 43 11 0 13 -5 8 -17 -16 -37 -17 -73 -2 -115 9 -24 19 -64 22 -90 7 -51 26
-70 66 -65 33 3 45 -42 31 -113 -19 -91 -16 -128 14 -153 l25 -22 -10 -120
c-6 -66 -10 -147 -9 -181 0 -33 -5 -83 -12 -112 -11 -42 -11 -54 -1 -66 26
-31 55 -18 111 48 35 41 59 61 64 55 14 -13 -20 -216 -44 -259 -93 -170 -115
-243 -90 -291 15 -28 42 -23 76 12 16 17 60 49 98 71 37 22 118 80 178 129
108 87 162 114 138 68 -14 -25 2 -49 34 -49 21 0 45 17 202 150 49 41 161 128
250 192 88 64 195 149 238 189 42 39 79 69 82 67 5 -5 -61 -164 -75 -183 -5
-5 -21 -45 -36 -87 -22 -64 -25 -81 -15 -93 24 -29 49 -17 78 36 88 164 226
327 357 426 l60 45 5 -37 c9 -65 57 -73 86 -15 21 40 106 120 229 213 132 101
310 272 372 357 22 30 65 99 96 152 126 215 386 514 352 406 -3 -13 -18 -84
-31 -158 -18 -100 -32 -148 -55 -188 -24 -42 -28 -57 -18 -68 47 -57 161 56
312 311 94 158 281 385 317 385 10 0 15 -13 30 -83 8 -38 7 -54 -6 -85 -9 -20
-27 -68 -41 -107 -14 -38 -43 -109 -65 -157 -43 -95 -46 -131 -12 -136 27 -4
73 48 161 183 105 160 252 329 336 386 31 22 57 37 57 34 0 -3 -9 -23 -20 -45
-11 -21 -33 -73 -50 -115 -17 -43 -47 -111 -68 -152 -28 -58 -34 -78 -26 -91
21 -33 42 -23 114 60 64 73 100 107 100 95 0 -10 -52 -134 -65 -153 -19 -29
-19 -48 0 -64 27 -22 63 -3 89 48 28 53 179 237 215 261 l23 15 -8 -44 c-5
-25 -9 -74 -9 -110 0 -63 1 -65 27 -68 30 -4 42 14 103 160 49 115 138 268
189 325 24 26 47 45 50 42 4 -3 -3 -67 -14 -142 -11 -75 -24 -177 -30 -227 -6
-50 -19 -116 -30 -148 -10 -31 -26 -99 -35 -150 -9 -51 -20 -104 -25 -117 -8
-20 -6 -29 10 -45 35 -35 49 -25 83 58 37 93 82 162 185 286 93 111 239 321
386 553 69 110 123 173 146 173 5 0 -11 -42 -35 -92 -64 -136 -82 -194 -69
-216 22 -34 46 -19 103 64 89 130 198 240 219 220 10 -11 -51 -208 -90 -288
-29 -61 -55 -96 -104 -143 -37 -34 -75 -71 -86 -81 -10 -11 -89 -92 -174 -182
-119 -124 -155 -168 -152 -185 2 -16 11 -23 30 -25 24 -3 43 13 135 110 186
196 254 257 399 353 175 117 259 202 328 332 27 51 55 98 64 105 16 14 -26
-75 -64 -132 -13 -19 -29 -56 -35 -81 -11 -41 -10 -50 4 -73 26 -39 21 -62
-25 -112 -34 -37 -40 -49 -31 -62 19 -32 51 -26 91 16 20 22 69 73 107 113 39
41 116 128 171 194 56 66 119 137 140 157 l39 37 -67 -137 c-70 -141 -114
-263 -104 -288 13 -33 53 -14 122 59 106 110 137 153 194 267 28 58 70 129 92
158 46 62 184 202 198 202 5 0 7 -13 4 -30 -4 -18 -1 -36 6 -45 25 -30 48 -16
98 58 27 39 87 117 133 172 46 55 95 115 107 133 13 18 28 29 34 26 19 -12
-22 -248 -64 -370 -56 -163 -21 -166 135 -11 95 93 132 139 222 277 59 91 172
248 250 350 129 167 236 320 248 353 3 9 8 9 16 1 10 -9 9 -44 -3 -156 -16
-151 -60 -316 -112 -420 -29 -58 -30 -84 -3 -98 26 -15 47 3 89 74 17 28 53
78 81 111 108 129 147 208 215 439 10 32 40 95 67 140 27 44 72 127 100 183
27 57 53 103 57 103 9 0 40 -168 40 -219 0 -28 -24 -102 -76 -234 -83 -208
-96 -270 -57 -275 19 -3 29 12 76 110 30 62 67 156 81 208 29 102 51 153 203
475 107 227 129 264 206 368 59 77 77 84 77 29 0 -49 19 -75 51 -70 19 2 26
11 33 43 13 64 37 125 48 125 6 0 7 -15 4 -37 -3 -21 -8 -60 -12 -88 -3 -27
-16 -72 -27 -99 -15 -35 -18 -53 -10 -65 19 -30 46 -18 80 34 18 28 74 89 125
137 l93 87 8 -29 c6 -23 13 -30 31 -30 32 0 41 13 71 109 39 124 56 157 134
266 69 95 96 145 190 349 23 49 43 87 46 84 3 -2 -2 -40 -10 -84 -9 -43 -20
-138 -24 -209 -7 -96 -16 -151 -35 -208 -31 -93 -32 -114 -6 -122 27 -8 45 7
86 72 32 50 35 51 72 46 l38 -5 81 148 c45 82 90 176 101 209 11 33 32 83 46
110 27 51 32 82 66 400 11 100 37 221 39 177 3 -65 53 -82 100 -34 15 15 49
68 76 117 27 50 70 125 97 167 26 42 74 132 107 200 44 93 80 148 143 225 266
325 361 424 490 511 89 60 196 115 265 135 85 25 271 40 455 35 204 -6 239
-16 375 -108 56 -39 114 -68 168 -85 l82 -27 104 44 c58 24 131 62 164 84 33
22 103 65 155 94 237 134 313 204 392 362 42 85 47 153 17 253 l-23 78 22 18
c12 9 46 25 75 35 250 82 485 327 566 589 35 114 37 194 7 309 -14 54 -26 104
-26 112 0 20 -114 219 -163 284 -65 87 -119 135 -233 210 -263 173 -466 259
-839 354 -348 88 -511 124 -589 130 -44 3 -120 19 -171 35 -50 17 -136 39
-192 50 -210 42 -622 145 -713 178 -52 19 -153 55 -224 79 -135 47 -326 147
-530 277 -136 87 -248 140 -351 165 -152 38 -406 73 -595 82 -102 5 -295 22
-430 39 -135 16 -281 32 -325 36 -133 11 -163 30 -262 162 -50 68 -106 130
-138 154 -30 22 -52 46 -49 52 3 7 25 28 51 47 25 19 89 81 142 139 53 58 150
164 216 235 66 72 133 151 149 176 16 25 57 81 91 125 183 236 411 636 473
830 18 55 46 165 63 245 16 80 42 190 56 245 25 98 25 105 20 365 -7 342 -26
451 -121 694 -26 64 -48 102 -78 133 -48 49 -65 52 -100 20 -22 -21 -25 -33
-31 -132 -4 -60 -12 -138 -18 -173 -12 -67 -8 -155 12 -282 36 -232 -37 -593
-175 -868 -160 -318 -280 -516 -401 -661 -82 -97 -193 -206 -202 -197 -3 3 27
54 67 113 163 240 277 541 315 831 8 64 22 153 30 198 40 212 38 444 -4 644
-10 47 -26 128 -36 180 -39 213 -128 413 -227 512 -65 65 -98 74 -137 37 -44
-41 -44 -60 -6 -232 20 -88 39 -180 41 -206 3 -25 1 -174 -5 -331 -12 -331
-32 -470 -75 -521 -19 -22 -26 -42 -26 -72 0 -40 -50 -189 -89 -266 -53 -102
-318 -422 -421 -506 -36 -29 -95 -85 -131 -122 -36 -37 -84 -81 -107 -98 -86
-63 -219 -172 -278 -227 -33 -32 -67 -58 -75 -58 -8 0 -48 34 -89 76 -41 42
-158 144 -259 227 -132 109 -261 229 -451 422 -325 329 -403 413 -423 451 -25
49 -40 152 -40 274 1 100 5 131 36 241 20 69 61 195 92 280 32 85 73 197 92
249 51 137 121 363 139 450 25 113 25 665 1 805 -38 218 -88 346 -219 563 -94
155 -119 211 -148 339 -28 116 -53 163 -88 163 -37 0 -68 -24 -92 -70 -41 -80
-19 -219 62 -409 88 -203 109 -282 152 -556 26 -161 26 -157 -53 -500 -27
-117 -88 -266 -212 -517 -81 -163 -113 -219 -119 -207 -5 8 -16 82 -25 165 -9
82 -23 176 -31 209 -8 33 -24 101 -34 150 -71 321 -234 631 -538 1023 -201
258 -235 328 -283 568 -31 162 -55 226 -88 244 -79 42 -172 -44 -187 -173 -11
-89 60 -376 124 -502 14 -27 43 -97 64 -155 22 -58 62 -148 90 -200 28 -52 57
-119 64 -148 8 -29 33 -80 55 -114 23 -33 57 -95 77 -137 19 -42 45 -92 58
-112 33 -53 114 -282 131 -374 18 -91 13 -254 -9 -320 -11 -33 -18 -41 -42
-43 -34 -4 -53 12 -175 153 -125 145 -156 185 -181 235 -13 25 -69 117 -125
205 -159 250 -363 632 -494 929 -96 215 -141 293 -376 646 -215 323 -301 474
-496 870 -131 265 -173 365 -239 565 -68 205 -116 284 -188 306 -54 16 -85 0
-112 -56 -42 -86 -31 -135 125 -575 20 -58 54 -172 76 -255 38 -148 41 -156
288 -650 138 -275 284 -554 326 -620 94 -150 184 -324 223 -435 17 -47 62
-150 100 -230 38 -80 77 -167 87 -195 10 -27 45 -111 78 -185 32 -74 90 -225
127 -335 37 -110 95 -267 130 -350 70 -170 86 -230 76 -295 -23 -152 -167
-201 -441 -150 -140 27 -218 52 -330 108 -298 148 -594 426 -710 665 -54 111
-79 214 -100 407 -27 256 -46 391 -61 459 -11 49 -18 173 -24 486 -8 340 -13
443 -29 540 -11 66 -25 221 -31 345 -33 657 -99 951 -341 1520 -133 313 -223
466 -350 601 -41 45 -49 49 -91 49 -38 0 -50 -5 -67 -26z m285 -378 c3 -8 0
-24 -6 -36 -9 -16 -19 -20 -43 -18 -32 3 -45 23 -33 54 7 19 75 19 82 0z m138
-482 c30 -29 13 -74 -28 -74 -24 0 -56 28 -56 50 0 38 54 54 84 24z m774 -416
c33 -33 -1 -78 -48 -63 -37 12 -20 75 20 75 9 0 21 -5 28 -12z m-603 -84 c0
-25 -4 -29 -32 -32 -27 -3 -33 0 -33 17 0 21 37 54 55 48 5 -2 10 -17 10 -33z
m755 -456 c21 -23 26 -54 11 -76 -14 -23 -73 -11 -90 19 -13 24 -13 29 2 53
21 32 49 33 77 4z m-646 -279 c51 -40 15 -90 -39 -55 -37 24 -33 70 6 75 4 1
18 -9 33 -20z m870 -52 c13 -9 17 -23 14 -52 -2 -34 -7 -41 -27 -43 -15 -3
-30 3 -38 14 -14 19 -18 76 -6 87 10 11 38 8 57 -6z m-974 -367 c27 -27 25
-37 -10 -55 -35 -18 -65 -8 -75 25 -15 46 47 68 85 30z m1078 -88 c8 -54 -24
-65 -47 -16 -14 31 -6 46 22 42 14 -2 23 -11 25 -26z m277 -152 c0 -29 -22
-37 -49 -17 -28 20 -14 49 21 45 22 -2 28 -8 28 -28z m977 -69 c15 -55 -4 -78
-36 -45 -16 16 -22 65 -9 78 15 15 37 -1 45 -33z m-2122 -121 c0 -37 -2 -40
-28 -40 -31 0 -52 16 -52 40 0 24 21 40 52 40 26 0 28 -3 28 -40z m3512 -167
c8 -10 17 -25 20 -33 8 -22 -9 -60 -27 -60 -18 0 -56 76 -48 97 7 18 37 16 55
-4z m-7183 -35 c14 -25 14 -29 -5 -55 -37 -50 -84 -38 -84 20 0 64 60 87 89
35z m3389 -70 c16 -16 15 -33 -4 -52 -22 -23 -61 -20 -69 4 -14 44 41 80 73
48z m1582 -18 c25 -13 42 -44 34 -63 -8 -21 -46 -29 -83 -16 -54 19 -38 84 22
88 5 1 17 -4 27 -9z m960 -20 c6 -11 8 -25 5 -30 -9 -14 -48 -12 -70 4 -16 12
-17 16 -6 30 19 22 58 20 71 -4z m-686 -386 c20 -20 21 -63 1 -70 -22 -9 -65
4 -72 21 -3 8 -2 26 1 40 7 29 45 34 70 9z m1010 -6 c28 -39 15 -88 -23 -88
-22 0 -61 41 -61 65 0 46 57 62 84 23z m1074 -54 c3 -34 -12 -46 -47 -37 -41
11 -19 77 24 71 14 -2 21 -12 23 -34z m-7216 -71 c36 -32 17 -113 -27 -113
-48 0 -88 67 -65 109 13 26 65 28 92 4z m3623 -22 c3 -10 1 -31 -5 -45 -7 -20
-16 -27 -33 -24 -43 6 -31 88 14 88 10 0 20 -8 24 -19z m-1851 -103 c29 -41
16 -108 -20 -108 -29 0 -68 102 -47 123 14 15 53 6 67 -15z m3506 -273 c20
-25 8 -50 -25 -50 -24 0 -31 5 -33 24 -6 37 34 55 58 26z m994 -51 c35 -34 10
-89 -36 -82 -30 4 -39 65 -12 85 23 17 29 16 48 -3z m-2884 -39 c35 -18 40
-53 11 -79 -46 -42 -119 11 -93 68 13 30 39 33 82 11z m3884 -97 c14 -23 -2
-50 -38 -63 -50 -17 -87 33 -50 69 21 21 73 17 88 -6z m-4286 0 c32 -32 0 -98
-48 -98 -33 0 -50 17 -50 49 0 49 65 82 98 49z m-2508 -48 c41 -41 13 -108
-39 -95 -32 8 -41 21 -41 61 0 54 42 72 80 34z m1580 -130 c41 -41 -7 -83 -76
-66 -19 5 -24 13 -24 40 0 18 3 36 7 39 14 15 74 6 93 -13z m-602 -26 c2 -13
-4 -24 -13 -28 -24 -9 -55 11 -55 35 0 30 64 23 68 -7z m4242 -49 c17 -20 5
-62 -21 -70 -34 -11 -68 3 -75 30 -8 34 11 55 51 55 18 0 38 -7 45 -15z
m-1830 -85 c29 -29 27 -77 -5 -92 -57 -26 -107 61 -57 100 22 17 39 15 62 -8z
m2614 -56 c10 -4 16 -18 16 -40 0 -28 -5 -35 -25 -40 -56 -14 -100 24 -81 71
6 15 60 21 90 9z m-5570 -70 c24 -23 19 -51 -10 -71 -24 -15 -29 -15 -53 -2
-32 18 -38 45 -15 70 21 23 57 25 78 3z m6040 -40 c26 -10 20 -53 -8 -60 -32
-8 -46 2 -46 30 0 35 17 44 54 30z m-4054 -93 c19 -5 67 -13 105 -16 158 -15
409 -89 591 -175 198 -93 624 -386 624 -429 0 -24 -150 -33 -468 -28 -349 5
-390 10 -506 61 -137 61 -242 152 -383 333 -54 70 -124 155 -155 189 -35 36
-54 64 -48 70 11 11 192 7 240 -5z m2618 10 c18 -11 11 -51 -10 -65 -38 -23
-78 35 -42 61 21 15 34 16 52 4z m4142 -59 c0 -35 -42 -57 -54 -27 -9 25 4 45
30 45 16 0 24 -6 24 -18z m-5736 -93 c52 -41 7 -91 -54 -59 -25 13 -27 55 -2
69 24 14 26 14 56 -10z m494 -91 c7 -7 12 -25 12 -40 0 -21 -6 -31 -26 -38
-67 -26 -119 35 -66 78 20 15 64 16 80 0z m-4480 -96 c2 -13 -4 -34 -13 -48
-13 -20 -23 -25 -48 -22 -26 2 -33 8 -35 29 -6 54 89 94 96 41z m6096 6 c20
-29 20 -72 0 -92 -20 -21 -30 -20 -70 5 -42 26 -45 59 -8 88 34 27 59 27 78
-1z m4321 9 c27 -21 13 -67 -20 -67 -22 0 -25 5 -25 33 0 48 12 57 45 34z
m-5370 -149 c39 -18 44 -56 11 -85 -33 -28 -33 -28 -73 -3 -25 15 -33 27 -33
49 0 46 42 63 95 39z m1675 -93 c23 -12 30 -23 30 -44 0 -31 -12 -45 -48 -56
-54 -16 -100 21 -88 71 11 41 59 53 106 29z m-3937 -34 c30 -11 42 -38 26 -58
-17 -20 -99 -13 -113 9 -8 13 -6 22 8 37 21 23 42 26 79 12z m2717 -116 c20
-24 -3 -65 -35 -65 -28 0 -52 37 -42 64 8 21 61 21 77 1z m-719 -25 c20 -11
26 -45 9 -55 -18 -11 -50 15 -50 40 0 27 11 31 41 15z m-941 -45 c28 -33 -24
-65 -74 -45 -25 9 -35 38 -19 53 12 13 81 7 93 -8z m5997 -21 c10 -27 -14 -64
-41 -64 -43 0 -55 58 -18 87 17 14 49 1 59 -23z m-3567 -161 c70 -32 299 -263
470 -473 65 -80 179 -212 255 -295 76 -82 153 -175 173 -205 19 -30 48 -70 64
-89 32 -37 65 -98 56 -106 -8 -8 -345 171 -413 220 -33 23 -99 78 -146 121
-47 44 -127 117 -178 163 -96 87 -199 214 -294 366 -70 109 -97 179 -104 269
l-6 68 34 -7 c19 -3 59 -18 89 -32z m-6666 -19 c9 -3 16 -17 16 -29 0 -43 -52
-75 -90 -55 -27 14 -25 36 5 65 25 25 41 30 69 19z m4716 -84 c13 -24 6 -40
-19 -40 -22 0 -41 19 -41 42 0 26 46 24 60 -2z m6115 -109 c10 -33 -5 -52 -39
-49 -34 3 -46 29 -26 53 18 21 57 19 65 -4z m-941 -17 c30 -30 11 -84 -29 -84
-41 0 -53 47 -22 88 13 16 32 15 51 -4z m-2424 -39 c18 -22 3 -55 -25 -55 -31
0 -52 35 -34 56 15 18 43 18 59 -1z m-1410 -5 c10 -5 24 -25 30 -44 23 -71
-33 -105 -70 -43 -25 40 -26 73 -2 86 21 13 20 13 42 1z m-2173 -22 c13 -12
23 -29 23 -39 0 -44 -92 -25 -98 20 -6 43 38 54 75 19z m-4677 -28 c17 -32 -4
-60 -44 -60 -54 0 -54 39 -1 68 28 16 33 15 45 -8z m8394 -266 c21 -20 20 -30
-4 -54 -24 -24 -63 -26 -84 -4 -21 20 -20 30 4 54 24 24 63 26 84 4z m2864
-75 c3 -17 -22 -49 -38 -49 -15 0 -22 41 -9 56 15 18 43 14 47 -7z m-2506 -46
c38 -34 8 -93 -47 -93 -40 0 -59 25 -49 65 11 44 62 59 96 28z m-1368 -26 c25
-18 17 -51 -14 -55 -31 -5 -53 23 -39 49 11 22 28 24 53 6z m2943 -68 c7 -6
13 -24 13 -40 0 -22 -7 -32 -31 -45 -38 -19 -73 -12 -95 21 -19 29 -11 63 19
75 25 11 74 5 94 -11z m-1290 -185 c20 -31 10 -54 -22 -54 -39 0 -65 18 -65
45 0 47 58 53 87 9z m-959 -117 c21 -17 14 -56 -12 -68 -49 -23 -106 15 -91
61 9 29 69 34 103 7z m-3790 -63 c12 -8 22 -21 22 -28 0 -21 -37 -48 -62 -44
-29 4 -37 48 -13 72 20 20 25 20 53 0z m3304 -61 c36 -32 10 -93 -40 -93 -54
0 -95 75 -54 99 26 16 73 13 94 -6z m3286 -75 c17 -17 15 -63 -3 -78 -22 -18
-65 2 -65 30 0 50 39 77 68 48z m-1033 -34 c14 -14 14 -19 2 -38 -17 -25 -43
-32 -62 -16 -19 16 -19 35 1 54 20 20 38 20 59 0z m559 -34 c46 -17 29 -60
-24 -60 -23 0 -36 36 -20 55 15 18 12 17 44 5z m-6629 -80 c11 -35 -3 -60 -34
-60 -39 0 -57 23 -43 55 15 32 67 36 77 5z m5011 -15 c20 -20 23 -28 14 -45
-12 -23 -16 -24 -58 -9 -35 12 -50 43 -32 64 18 22 48 18 76 -10z m-515 -55
c21 -12 25 -50 7 -68 -29 -29 -108 -2 -108 38 0 37 56 53 101 30z m1036 -36
c7 -19 -30 -59 -46 -50 -12 8 -15 49 -4 59 12 13 44 7 50 -9z m407 -197 c11
-8 17 -23 14 -37 -7 -55 -110 -61 -116 -8 -5 46 61 75 102 45z m-636 -263 c23
-16 30 -58 12 -69 -20 -13 -71 7 -82 31 -21 45 25 70 70 38z m1031 -118 c22
-26 2 -46 -45 -46 -46 0 -62 14 -50 45 7 19 79 20 95 1z m-1562 -2000 c37 -31
51 -76 59 -198 6 -81 10 -100 28 -116 12 -11 87 -40 168 -66 223 -72 234 -93
168 -332 -22 -82 -45 -192 -50 -244 -9 -89 -8 -98 13 -139 16 -32 35 -51 66
-68 60 -31 110 -29 186 7 105 50 315 281 418 460 31 53 59 72 78 53 13 -13
-125 -241 -198 -328 -32 -39 -75 -96 -96 -127 -46 -68 -120 -139 -173 -166
-180 -92 -357 -53 -420 93 -26 59 -32 287 -10 393 20 99 20 171 1 199 -20 29
-162 123 -185 123 -15 0 -18 -12 -24 -82 -16 -187 -58 -392 -135 -646 -22 -72
-47 -164 -56 -204 -60 -264 -141 -426 -282 -559 -101 -96 -192 -129 -358 -129
-104 0 -132 8 -213 60 -33 22 -48 8 -137 -137 -44 -72 -105 -161 -136 -199
-31 -38 -96 -125 -144 -194 -110 -157 -306 -354 -398 -400 -54 -27 -70 -30
-150 -30 -126 0 -195 21 -259 79 l-51 45 -21 -26 c-11 -14 -36 -54 -55 -87
-42 -75 -119 -155 -225 -233 -129 -96 -165 -111 -276 -116 -55 -2 -113 1 -138
7 -80 22 -167 125 -203 242 -27 85 -24 172 12 393 17 105 32 223 32 261 2 96
-21 135 -127 224 -47 39 -88 76 -91 81 -10 16 -42 11 -50 -7 -4 -10 -25 -70
-47 -133 -46 -134 -224 -502 -295 -610 -28 -41 -80 -110 -117 -153 -36 -43
-90 -111 -119 -150 -67 -91 -142 -158 -215 -194 -53 -26 -65 -28 -182 -28
-193 0 -233 22 -321 178 -57 100 -71 103 -125 31 -51 -68 -116 -121 -218 -176
-181 -99 -266 -110 -391 -49 -101 50 -147 109 -191 244 -20 62 -44 152 -55
201 -10 48 -20 90 -22 93 -3 2 -26 -24 -53 -59 -26 -35 -96 -121 -154 -193
-59 -71 -147 -184 -197 -250 -104 -139 -210 -254 -343 -373 -83 -74 -113 -94
-236 -153 -180 -86 -257 -113 -386 -138 -157 -29 -228 -33 -413 -17 -188 15
-241 29 -392 102 -71 34 -108 60 -162 113 -72 71 -155 188 -210 298 -73 147
-97 334 -68 549 9 66 18 156 22 201 3 46 19 136 35 200 44 173 115 308 338
643 166 249 207 304 328 434 176 190 408 391 597 517 180 121 290 177 450 231
109 36 132 41 217 40 146 0 292 -53 370 -133 61 -63 84 -133 84 -259 0 -166
-49 -412 -107 -540 -16 -36 -46 -111 -67 -168 -42 -113 -82 -185 -150 -270
-63 -78 -83 -89 -189 -107 -108 -19 -137 -15 -153 20 -10 22 -7 31 26 78 20
28 97 138 171 242 200 282 270 433 310 670 25 148 11 231 -48 293 -95 100
-228 101 -477 5 -105 -40 -267 -124 -331 -172 -117 -86 -508 -463 -613 -591
-129 -157 -309 -436 -406 -629 -123 -246 -163 -424 -164 -731 0 -151 3 -210
16 -261 20 -76 122 -307 168 -379 53 -82 141 -155 253 -210 134 -65 240 -90
382 -90 178 0 275 16 405 66 279 109 423 231 709 599 64 82 150 186 192 230
42 44 101 118 132 165 30 47 95 142 143 212 49 70 127 194 174 274 146 253
223 345 418 499 113 90 205 144 291 169 62 18 176 21 218 5 67 -25 138 -121
164 -223 46 -174 44 -159 18 -212 -24 -48 -59 -77 -109 -88 -48 -12 -55 3 -61
141 -5 109 -9 137 -31 185 -52 112 -93 123 -224 59 -229 -112 -380 -272 -523
-555 -93 -184 -141 -360 -141 -520 0 -191 68 -297 208 -327 118 -24 240 20
376 137 76 66 82 74 142 199 92 191 164 378 184 477 19 95 40 138 68 138 9 0
40 -13 67 -28 67 -36 69 -60 14 -189 -66 -156 -87 -226 -114 -386 -35 -207
-24 -264 64 -323 52 -34 148 -44 215 -21 100 34 221 142 373 332 83 104 119
161 182 285 118 233 241 546 241 613 0 20 -15 62 -35 100 -57 107 -67 241 -24
313 23 39 50 47 81 26 68 -47 93 -115 84 -220 -10 -101 -9 -112 5 -139 15 -29
126 -105 251 -173 54 -29 110 -66 125 -82 27 -29 28 -33 27 -131 -1 -87 -9
-130 -50 -287 -47 -180 -48 -189 -48 -337 -1 -138 1 -154 20 -180 23 -31 166
-113 198 -113 34 0 216 95 278 145 76 60 136 138 188 244 65 133 81 179 91
270 5 46 18 118 29 160 11 41 20 86 20 99 0 51 43 233 86 361 24 73 44 140 44
147 0 25 -25 26 -87 5 -33 -11 -132 -29 -221 -40 -89 -12 -165 -21 -169 -22
-38 -6 -46 26 -10 40 12 5 110 30 217 55 107 26 212 51 233 57 69 19 101 61
160 209 102 256 286 634 318 653 29 18 69 -1 85 -39 13 -32 13 -41 -1 -82 -8
-26 -27 -67 -42 -92 -107 -184 -271 -526 -257 -540 8 -8 268 82 422 147 53 22
65 24 73 12 5 -8 9 -17 9 -22 0 -9 -90 -67 -184 -118 -64 -34 -116 -56 -321
-134 l-60 -23 -32 -76 c-60 -143 -142 -400 -154 -485 -7 -49 -10 -142 -7 -225
6 -159 21 -212 77 -259 40 -33 132 -61 179 -54 85 14 263 153 347 271 22 31
100 136 172 234 73 97 151 211 172 252 22 41 51 90 65 109 34 46 33 65 -9 153
-22 47 -45 121 -61 197 l-26 122 27 122 c33 152 67 256 107 327 64 114 175
276 202 293 36 24 152 48 197 41 51 -8 110 -44 135 -82 42 -62 58 -264 29
-375 -23 -90 -122 -296 -181 -377 -30 -41 -88 -115 -129 -165 -88 -105 -97
-126 -65 -160 33 -36 82 -48 166 -43 112 7 186 48 304 167 109 109 147 176
181 312 11 46 40 145 64 220 62 191 112 395 131 529 8 63 22 158 31 211 19
115 14 159 -24 205 -66 82 -93 136 -93 187 0 44 16 92 42 125 17 21 74 14 105
-12z m2415 -866 c118 -36 202 -108 232 -198 33 -97 17 -364 -34 -547 -11 -38
-29 -128 -40 -199 -22 -139 -41 -192 -85 -244 -42 -50 -80 -66 -158 -64 -116
2 -122 24 -43 174 30 57 68 149 85 205 33 114 80 391 88 525 5 76 3 92 -17
133 -25 52 -86 98 -155 116 -48 13 -214 17 -268 6 -93 -20 -372 -275 -494
-453 -95 -139 -249 -418 -292 -529 -38 -97 -119 -406 -160 -610 -27 -135 -53
-380 -53 -490 0 -135 61 -384 117 -480 52 -88 164 -168 300 -212 63 -20 107
-27 210 -30 149 -6 251 13 360 66 75 37 242 156 315 224 31 29 77 69 102 89
118 96 324 490 433 827 20 63 74 250 120 415 98 353 143 487 221 657 85 186
128 255 218 345 64 63 99 90 167 123 47 23 103 45 126 48 38 5 42 3 74 -38 19
-23 50 -60 70 -81 34 -36 40 -38 96 -38 127 0 223 41 390 166 111 83 143 98
143 70 0 -22 -33 -55 -155 -157 -146 -121 -199 -154 -286 -179 -105 -29 -104
-28 -75 -141 66 -250 75 -420 33 -607 -15 -65 -39 -137 -57 -171 -42 -78 -199
-245 -259 -275 -91 -46 -222 -56 -342 -25 -57 14 -175 162 -205 256 -26 80
-36 103 -46 103 -17 0 -58 -110 -94 -257 -57 -235 -149 -478 -276 -728 -127
-253 -168 -314 -293 -443 -102 -106 -216 -187 -378 -269 -90 -45 -136 -60
-261 -88 -324 -74 -469 -72 -633 4 -147 69 -281 272 -351 530 -24 89 -26 112
-26 321 -1 249 11 336 63 502 17 51 40 138 51 192 32 145 82 281 166 451 62
126 99 183 229 357 167 222 250 309 417 432 223 164 261 189 321 208 129 40
276 43 389 8z m1983 -855 c30 -29 32 -59 5 -102 -23 -39 -67 -63 -114 -63 -48
0 -65 8 -82 41 -20 39 -9 72 37 114 33 29 47 35 84 35 35 0 52 -6 70 -25z
m-5027 -1349 c73 -84 119 -236 108 -356 -9 -95 -43 -258 -81 -384 -61 -208
-250 -541 -444 -781 -44 -55 -81 -105 -81 -112 0 -6 24 -25 53 -42 28 -16 78
-57 110 -90 31 -33 68 -63 82 -67 48 -12 158 1 206 24 66 32 377 297 385 328
4 15 -2 52 -16 92 -28 85 -35 202 -21 364 13 149 40 245 115 403 100 209 235
345 343 345 54 0 102 -29 140 -85 49 -71 66 -140 60 -249 -4 -79 -11 -109 -56
-226 -79 -204 -146 -314 -281 -455 -82 -86 -100 -112 -100 -145 0 -48 88 -103
183 -116 97 -14 257 62 347 163 53 59 171 288 196 381 13 45 22 62 35 62 9 0
19 -6 21 -12 11 -29 -25 -149 -72 -248 -126 -259 -261 -393 -456 -456 -81 -25
-90 -26 -151 -15 -83 15 -141 42 -183 86 -51 52 -68 47 -168 -47 -112 -106
-305 -253 -357 -271 -22 -8 -64 -18 -92 -22 -75 -10 -79 -19 -58 -120 46 -220
-36 -566 -166 -696 -46 -46 -116 -71 -161 -58 -42 11 -101 65 -126 115 -34 68
-64 194 -64 269 1 85 19 337 28 384 10 53 -13 35 -81 -60 -117 -166 -266 -289
-350 -289 -18 0 -60 14 -94 31 -74 37 -78 35 -105 -54 -21 -71 -105 -164 -223
-248 -100 -72 -136 -84 -253 -83 -107 1 -140 13 -185 66 -51 61 -73 130 -140
442 -66 308 -86 348 -189 397 -72 34 -105 36 -162 9 -56 -28 -191 -170 -242
-256 -79 -133 -99 -226 -108 -504 -5 -138 -3 -230 6 -302 11 -90 10 -108 -3
-140 -22 -53 -55 -59 -124 -23 -75 39 -86 64 -78 179 11 163 -44 586 -99 762
-15 47 -49 118 -81 168 -30 49 -55 97 -55 107 0 23 54 85 91 105 39 20 85 18
108 -5 44 -44 70 -114 125 -336 30 -118 47 -170 57 -170 8 0 20 25 31 68 35
133 110 252 243 383 105 104 182 148 288 167 88 15 133 1 184 -57 101 -115
146 -277 187 -678 18 -165 36 -215 97 -255 34 -22 56 -28 113 -31 l72 -4 92
62 c91 61 124 94 157 159 16 33 17 49 4 255 -8 122 -14 316 -13 431 0 189 3
222 27 328 29 131 57 197 100 233 35 29 66 30 101 3 29 -22 33 -58 16 -119
-34 -120 -78 -656 -59 -725 28 -100 97 -196 154 -215 29 -9 41 -8 77 8 76 33
198 182 293 356 43 77 48 107 64 401 18 318 105 652 302 1160 40 103 114 230
160 276 26 26 53 41 95 52 84 22 89 21 122 -17z m-3518 -455 c34 -49 51 -112
51 -189 0 -91 -16 -149 -91 -315 -80 -178 -118 -248 -220 -407 -47 -74 -108
-170 -135 -214 -43 -71 -150 -220 -304 -425 -30 -40 -110 -128 -178 -195 -68
-66 -126 -129 -129 -139 -5 -15 26 -50 133 -152 76 -72 165 -165 198 -204 69
-84 259 -242 415 -346 148 -99 411 -229 530 -261 52 -14 145 -44 205 -66 61
-22 170 -56 244 -74 199 -49 207 -70 56 -136 -125 -54 -176 -62 -278 -45 -95
17 -172 53 -346 161 -64 40 -170 106 -236 146 -218 132 -334 227 -555 451
-201 203 -371 352 -378 331 -1 -5 6 -58 17 -116 11 -58 25 -158 31 -223 6 -65
22 -183 35 -263 34 -204 33 -199 51 -465 22 -336 23 -662 1 -736 -21 -72 -117
-184 -156 -184 -24 0 -26 4 -31 58 -3 33 -2 105 3 160 4 56 5 140 1 187 -4 47
-10 207 -15 355 -11 375 -41 958 -60 1174 -18 204 -80 587 -124 766 -25 99
-61 254 -80 344 -73 338 -105 435 -174 529 -47 63 -86 84 -143 78 -75 -8 -156
-52 -229 -125 -53 -54 -76 -87 -121 -181 -80 -164 -134 -353 -140 -485 -5
-133 36 -487 63 -536 13 -25 11 -73 -3 -87 -22 -22 -55 -12 -119 36 -88 67
-136 123 -172 201 -58 121 -43 247 68 569 59 173 88 236 165 357 89 142 118
175 217 246 118 84 205 128 283 141 171 29 226 -29 334 -352 60 -178 84 -267
121 -449 13 -64 31 -136 40 -161 9 -25 34 -152 55 -283 21 -131 40 -241 43
-243 12 -13 51 22 105 94 32 42 79 104 105 138 59 78 298 454 415 654 50 85
113 209 140 275 28 66 72 167 100 225 57 120 95 230 113 322 18 95 41 112 79
59z m2412 -111 c43 -47 45 -72 9 -145 -40 -81 -78 -110 -144 -110 -66 0 -97
34 -97 106 0 80 39 142 110 174 47 20 89 12 122 -25z"/>
<path d="M10949 8612 c-76 -78 -115 -151 -178 -334 -76 -221 -83 -297 -41
-444 34 -116 63 -139 112 -86 93 99 186 266 236 423 37 114 66 300 60 381 -4
50 -9 63 -38 93 -51 52 -72 47 -151 -33z"/>
<path d="M15394 8372 c-88 -65 -188 -195 -251 -328 -47 -98 -66 -257 -60 -489
4 -181 18 -232 81 -310 70 -85 203 -121 294 -78 51 24 186 167 216 228 89 182
95 551 12 754 -33 82 -44 95 -112 140 -32 21 -75 55 -93 75 -19 20 -38 36 -41
36 -4 0 -25 -13 -46 -28z"/>
<path d="M11027 6298 c-14 -18 -34 -51 -45 -73 -25 -50 -109 -291 -172 -495
-26 -86 -66 -212 -88 -282 -48 -149 -78 -284 -88 -389 -6 -68 -5 -77 12 -83
15 -6 28 3 59 40 22 26 75 88 118 137 69 79 92 116 183 300 119 237 138 296
155 486 13 146 3 251 -32 330 -31 72 -63 81 -102 29z"/>
<path d="M11863 6035 c-25 -17 -150 -224 -188 -309 -59 -132 -75 -216 -75
-380 0 -152 9 -219 30 -240 15 -14 75 50 157 171 105 154 157 275 188 442 25
137 16 272 -22 313 -20 22 -61 23 -90 3z"/>
<path d="M10576 4568 c-8 -38 -15 -161 -22 -379 -7 -228 5 -325 50 -391 19
-29 28 -33 63 -32 78 1 124 59 166 204 58 201 39 492 -34 526 -13 7 -62 30
-109 53 -47 23 -91 41 -97 41 -7 0 -15 -10 -17 -22z"/>
</g>
</svg>
